<?xml version="1.0" standalone="no"?>
<!DOCTYPE svg PUBLIC "-//W3C//DTD SVG 20010904//EN"
 "http://www.w3.org/TR/2001/REC-SVG-20010904/DTD/svg10.dtd">
<svg version="1.0" xmlns="http://www.w3.org/2000/svg"
 width="82.000000pt" height="24.000000pt" viewBox="0 0 82.000000 24.000000"
 preserveAspectRatio="xMidYMid meet">
<metadata>
Created by potrace 1.13, written by Peter Selinger 2001-2015
</metadata>
<g transform="translate(0.000000,24.000000) scale(0.100000,-0.100000)"
fill="#000000" stroke="none">
<path d="M62 220 c-94 -59 -66 -195 44 -216 45 -8 93 20 118 70 17 36 18 43 5
79 -26 74 -105 106 -167 67z"/>
<path d="M360 223 c-95 -49 -83 -183 20 -214 53 -16 107 10 134 65 17 36 18
43 5 79 -25 71 -96 102 -159 70z"/>
<path d="M650 223 c-95 -49 -83 -183 20 -214 53 -16 107 10 134 65 17 36 18
43 5 79 -25 71 -96 102 -159 70z"/>
</g>
</svg>
